<?xml version="1.0" encoding="UTF-8"?>
<svg id="Layer_2" data-name="Layer 2" xmlns="http://www.w3.org/2000/svg" viewBox="0 0 298.47 34.1">
  <defs>
    <style>
      .cls-1 {
        fill: #e4e5e7;
      }

      .cls-2 {
        fill: #b4daf9;
      }

      .cls-3 {
        fill: #ffdce1;
      }
    </style>
  </defs>
  <g id="Layer_1-2" data-name="Layer 1">
    <g>
      <path class="cls-2" d="M0,.65h15.69c6.22,0,9.48,3.56,9.48,8.52,0,3.31-1.55,5.87-4.26,7.22v.1c3.61,1.15,5.77,4.16,5.77,8.07,0,5.11-3.31,8.88-9.68,8.88H0V.65ZM14.89,13.94c2.66,0,3.91-1.6,3.91-3.66s-1-3.66-3.96-3.66H6.42v7.32h8.47ZM15.89,27.53c3.01,0,4.21-1.75,4.21-3.91s-1.5-3.96-4.16-3.96H6.42v7.87h9.48Z"/>
      <path class="cls-2" d="M31.34.65h6.42v26.88h17.15v5.92h-23.57V.65Z"/>
      <path class="cls-2" d="M58.82,20.41V.65h6.42v19.76c0,4.86,2.51,7.77,7.47,7.77s7.52-2.91,7.52-7.77V.65h6.27v19.76c0,8.37-4.91,13.69-13.74,13.69s-13.94-5.26-13.94-13.69Z"/>
      <path class="cls-2" d="M92.42.65h24.17v5.97h-17.75v7.32h14.84v5.72h-14.84v7.87h17.75v5.92h-24.17V.65Z"/>
      <path class="cls-1" d="M135.65.65h6.42v32.79h-6.42V.65Z"/>
      <path class="cls-1" d="M148.08,13.69c0-8.42,4.96-13.69,13.94-13.69s13.94,5.27,13.94,13.69v19.76h-6.42V13.69c0-4.86-2.51-7.72-7.52-7.72s-7.52,2.86-7.52,7.72v19.76h-6.42V13.69Z"/>
      <path class="cls-3" d="M195.27.65h13.39c8.52,0,12.33,4.71,12.33,11.13s-3.81,11.13-12.33,11.13h-6.97v10.53h-6.42V.65ZM208.76,17c4.26,0,5.72-2.21,5.72-5.21s-1.45-5.16-5.72-5.16h-7.07v10.38h7.07Z"/>
      <path class="cls-3" d="M225.46.65h6.42v32.79h-6.42V.65Z"/>
      <path class="cls-3" d="M237.9,13.69c0-8.42,4.96-13.69,13.94-13.69s13.94,5.27,13.94,13.69v19.76h-6.42V13.69c0-4.86-2.51-7.72-7.52-7.72s-7.52,2.86-7.52,7.72v19.76h-6.42V13.69Z"/>
      <path class="cls-3" d="M271.74.65h6.42v14.34l11.73-14.34h8.07l-13.94,16.1,14.44,16.7h-8.27l-12.03-14.74v14.74h-6.42V.65Z"/>
    </g>
  </g>
</svg>